<mxfile host="app.diagrams.net" modified="2024-02-19T12:07:26.785Z" agent="Mozilla/5.0 (Windows NT 10.0; Win64; x64) AppleWebKit/537.36 (KHTML, like Gecko) Chrome/121.0.0.0 Safari/537.36" etag="6ms7GxpQU1pXknTYDzLx" version="23.1.5" type="device">
  <diagram name="Страница — 1" id="KhjP00_ywvauxUWWUhoX">
    <mxGraphModel dx="1300" dy="666" grid="1" gridSize="10" guides="1" tooltips="1" connect="1" arrows="1" fold="1" page="1" pageScale="1" pageWidth="827" pageHeight="1169" math="0" shadow="0">
      <root>
        <mxCell id="0" />
        <mxCell id="1" parent="0" />
        <mxCell id="pcD6cftgy6V0AVbK10TF-2" value="" style="endArrow=classic;html=1;rounded=0;" edge="1" parent="1" target="pcD6cftgy6V0AVbK10TF-4">
          <mxGeometry width="50" height="50" relative="1" as="geometry">
            <mxPoint x="30" y="320" as="sourcePoint" />
            <mxPoint x="800" y="320" as="targetPoint" />
          </mxGeometry>
        </mxCell>
        <mxCell id="pcD6cftgy6V0AVbK10TF-3" value="Main Thread" style="edgeLabel;html=1;align=center;verticalAlign=middle;resizable=0;points=[];" vertex="1" connectable="0" parent="pcD6cftgy6V0AVbK10TF-2">
          <mxGeometry x="-0.7908" y="1" relative="1" as="geometry">
            <mxPoint x="37" y="1" as="offset" />
          </mxGeometry>
        </mxCell>
        <mxCell id="pcD6cftgy6V0AVbK10TF-7" value="" style="edgeStyle=orthogonalEdgeStyle;rounded=0;orthogonalLoop=1;jettySize=auto;html=1;" edge="1" parent="1" source="pcD6cftgy6V0AVbK10TF-4" target="pcD6cftgy6V0AVbK10TF-37">
          <mxGeometry relative="1" as="geometry" />
        </mxCell>
        <mxCell id="pcD6cftgy6V0AVbK10TF-23" value="Main Thread" style="edgeLabel;html=1;align=center;verticalAlign=middle;resizable=0;points=[];" vertex="1" connectable="0" parent="pcD6cftgy6V0AVbK10TF-7">
          <mxGeometry x="0.0667" relative="1" as="geometry">
            <mxPoint as="offset" />
          </mxGeometry>
        </mxCell>
        <mxCell id="pcD6cftgy6V0AVbK10TF-10" style="edgeStyle=orthogonalEdgeStyle;rounded=0;orthogonalLoop=1;jettySize=auto;html=1;exitX=1;exitY=0.5;exitDx=0;exitDy=0;entryX=0;entryY=0.5;entryDx=0;entryDy=0;" edge="1" parent="1" source="pcD6cftgy6V0AVbK10TF-4" target="pcD6cftgy6V0AVbK10TF-9">
          <mxGeometry relative="1" as="geometry" />
        </mxCell>
        <mxCell id="pcD6cftgy6V0AVbK10TF-21" value="Connections Listener Thread" style="edgeLabel;html=1;align=center;verticalAlign=middle;resizable=0;points=[];" vertex="1" connectable="0" parent="pcD6cftgy6V0AVbK10TF-10">
          <mxGeometry x="-0.0521" y="1" relative="1" as="geometry">
            <mxPoint as="offset" />
          </mxGeometry>
        </mxCell>
        <mxCell id="pcD6cftgy6V0AVbK10TF-4" value="Initialize game" style="rounded=0;whiteSpace=wrap;html=1;" vertex="1" parent="1">
          <mxGeometry x="150" y="290" width="120" height="60" as="geometry" />
        </mxCell>
        <mxCell id="pcD6cftgy6V0AVbK10TF-8" value="" style="edgeStyle=orthogonalEdgeStyle;rounded=0;orthogonalLoop=1;jettySize=auto;html=1;" edge="1" parent="1" source="pcD6cftgy6V0AVbK10TF-5" target="pcD6cftgy6V0AVbK10TF-6">
          <mxGeometry relative="1" as="geometry" />
        </mxCell>
        <mxCell id="pcD6cftgy6V0AVbK10TF-5" value="Update state" style="rounded=0;whiteSpace=wrap;html=1;" vertex="1" parent="1">
          <mxGeometry x="630" y="290" width="120" height="60" as="geometry" />
        </mxCell>
        <mxCell id="pcD6cftgy6V0AVbK10TF-22" style="edgeStyle=orthogonalEdgeStyle;rounded=0;orthogonalLoop=1;jettySize=auto;html=1;exitX=1;exitY=0.5;exitDx=0;exitDy=0;entryX=0.5;entryY=0;entryDx=0;entryDy=0;" edge="1" parent="1" source="pcD6cftgy6V0AVbK10TF-6" target="pcD6cftgy6V0AVbK10TF-37">
          <mxGeometry relative="1" as="geometry">
            <Array as="points">
              <mxPoint x="930" y="320" />
              <mxPoint x="930" y="230" />
              <mxPoint x="520" y="230" />
            </Array>
          </mxGeometry>
        </mxCell>
        <mxCell id="pcD6cftgy6V0AVbK10TF-6" value="Send out state" style="rounded=0;whiteSpace=wrap;html=1;" vertex="1" parent="1">
          <mxGeometry x="790" y="290" width="120" height="60" as="geometry" />
        </mxCell>
        <mxCell id="pcD6cftgy6V0AVbK10TF-14" style="edgeStyle=orthogonalEdgeStyle;rounded=0;orthogonalLoop=1;jettySize=auto;html=1;exitX=1;exitY=0.5;exitDx=0;exitDy=0;entryX=0;entryY=0.5;entryDx=0;entryDy=0;" edge="1" parent="1" source="pcD6cftgy6V0AVbK10TF-9" target="pcD6cftgy6V0AVbK10TF-11">
          <mxGeometry relative="1" as="geometry" />
        </mxCell>
        <mxCell id="pcD6cftgy6V0AVbK10TF-9" value="Listen for connections" style="rounded=0;whiteSpace=wrap;html=1;" vertex="1" parent="1">
          <mxGeometry x="310" y="480" width="130" height="60" as="geometry" />
        </mxCell>
        <mxCell id="pcD6cftgy6V0AVbK10TF-13" style="edgeStyle=orthogonalEdgeStyle;rounded=0;orthogonalLoop=1;jettySize=auto;html=1;exitX=0.5;exitY=1;exitDx=0;exitDy=0;" edge="1" parent="1" source="pcD6cftgy6V0AVbK10TF-11" target="pcD6cftgy6V0AVbK10TF-12">
          <mxGeometry relative="1" as="geometry" />
        </mxCell>
        <mxCell id="pcD6cftgy6V0AVbK10TF-16" value="Then" style="edgeLabel;html=1;align=center;verticalAlign=middle;resizable=0;points=[];" vertex="1" connectable="0" parent="pcD6cftgy6V0AVbK10TF-13">
          <mxGeometry x="-0.3045" y="1" relative="1" as="geometry">
            <mxPoint as="offset" />
          </mxGeometry>
        </mxCell>
        <mxCell id="pcD6cftgy6V0AVbK10TF-11" value="If connect" style="rounded=0;whiteSpace=wrap;html=1;" vertex="1" parent="1">
          <mxGeometry x="480" y="480" width="120" height="60" as="geometry" />
        </mxCell>
        <mxCell id="pcD6cftgy6V0AVbK10TF-15" style="edgeStyle=orthogonalEdgeStyle;rounded=0;orthogonalLoop=1;jettySize=auto;html=1;exitX=0;exitY=0.5;exitDx=0;exitDy=0;" edge="1" parent="1" source="pcD6cftgy6V0AVbK10TF-12" target="pcD6cftgy6V0AVbK10TF-9">
          <mxGeometry relative="1" as="geometry" />
        </mxCell>
        <mxCell id="pcD6cftgy6V0AVbK10TF-12" value="Add client" style="rounded=0;whiteSpace=wrap;html=1;" vertex="1" parent="1">
          <mxGeometry x="480" y="580" width="120" height="60" as="geometry" />
        </mxCell>
        <mxCell id="pcD6cftgy6V0AVbK10TF-38" value="" style="edgeStyle=orthogonalEdgeStyle;rounded=0;orthogonalLoop=1;jettySize=auto;html=1;" edge="1" parent="1" source="pcD6cftgy6V0AVbK10TF-37" target="pcD6cftgy6V0AVbK10TF-5">
          <mxGeometry relative="1" as="geometry" />
        </mxCell>
        <mxCell id="pcD6cftgy6V0AVbK10TF-37" value="Get inputs" style="rounded=0;whiteSpace=wrap;html=1;" vertex="1" parent="1">
          <mxGeometry x="460" y="290" width="120" height="60" as="geometry" />
        </mxCell>
      </root>
    </mxGraphModel>
  </diagram>
</mxfile>
